<svg xmlns="http://www.w3.org/2000/svg" width="3000" height="1302" preserveAspectRatio="xMidYMid" style="background-color:rgb(57, 57, 57)" xmlns:v="https://vecta.io/nano"><style><![CDATA[.B{fill:#a31616}.C{fill:#025da7}.D{fill:#05761e}.E{fill:#d66905}.F{fill:#fdb82b}]]></style><g transform="matrix(1 0 0 1 0 0)"><circle cx="2723.962" cy="31.093" r="6.948" class="D"/><circle cx="478.262" cy="790.559" r="5.692" class="F"/><circle cx="515.525" cy="330.301" r="6.082" class="B"/><g class="C"><circle cx="530.471" cy="981.242" r="6.025"/><circle cx="279.066" cy="833.464" r="5.268"/></g><circle cx="658.772" cy="1013.012" r="6.946" class="E"/><circle cx="1425.18" cy="1082.156" r="6.144" class="C"/><circle cx="1324.689" cy="915.569" r="5.895" class="E"/><circle cx="1120.358" cy="1076.768" r="4.241" class="F"/><circle cx="1228.487" cy="432.253" r="5.015" class="E"/><circle cx="1020.216" cy="999.204" r="4.372" class="F"/><circle cx="746.279" cy="95.286" r="7.977" class="D"/><circle cx="1549.184" cy="579.863" r="7.487" class="C"/><circle cx="187.607" cy="95.049" r="4.59" class="F"/><circle cx="1393.007" cy="241.234" r="6.118" class="C"/><circle cx="291.053" cy="756.726" r="5.723" class="F"/><circle cx="1041.491" cy="328.766" r="4.215" class="D"/><circle cx="1674.938" cy="223.129" r="4.793" class="E"/><circle cx="1817.942" cy="221.667" r="7.103" class="C"/><circle cx="1916.573" cy="1303.23" r="4.177" class="B"/><circle cx="853.63" cy="718.972" r="6.429" class="C"/><circle cx="662.889" cy="804.721" r="4.484" class="B"/><circle cx="444.436" cy="1187.93" r="5.445" class="D"/><circle cx="2545.035" cy="50.131" r="6.93" class="B"/><circle cx="395.294" cy="324.067" r="4.955" class="E"/><circle cx="2372.844" cy="1034.689" r="6.721" class="D"/><circle cx="1514.245" cy="73.658" r="7.56" class="B"/><g class="D"><circle cx="372.709" cy="428.06" r="6.909"/><circle cx="2007.46" cy="527.734" r="6.224"/></g><circle cx="2503.736" cy="1123.128" r="5.66" class="B"/><circle cx="2928.166" cy="355.31" r="5.108" class="F"/><g class="C"><circle cx="2868.959" cy="1268.056" r="4.029"/><circle cx="181.451" cy="1247.292" r="7.606"/></g><g class="E"><circle cx="2074.796" cy="740.651" r="7.279"/><circle cx="1630.672" cy="150.395" r="4.422"/></g><circle cx="2977.134" cy="1066.794" r="4.676" class="B"/><g class="E"><circle cx="875.131" cy="813.197" r="7.405"/><circle cx="2550.215" cy="682.038" r="4.124"/></g><circle cx="2514.188" cy="575.083" r="7.777" class="C"/><circle cx="1286.925" cy="1223.633" r="7.003" class="D"/><g class="E"><circle cx="811.319" cy="304.863" r="7.381"/><circle cx="1813.946" cy="344.958" r="4.215"/><circle cx="2847.192" cy="1209.365" r="5.832"/></g><circle cx="2894.444" cy="110.817" r="4.844" class="D"/><circle cx="393.834" cy="884.224" r="5.843" class="B"/><g class="F"><circle cx="2415.138" cy="278.668" r="5.624"/><circle cx="420.14" cy="507.489" r="6.184"/></g><circle cx="2475.339" cy="701.065" r="6.454" class="C"/><g class="B"><circle cx="538.614" cy="408.166" r="7.511"/><circle cx="237.733" cy="608.94" r="4.532"/></g><circle cx="1040.103" cy="1176.519" r="4.456" class="D"/><g class="E"><circle cx="2886.527" cy="244.848" r="6.892"/><circle cx="414.342" cy="852.496" r="4.431"/></g><circle cx="2266.074" cy="650.855" r="4.008" class="C"/><circle cx="170.198" cy="406.796" r="4.197" class="B"/></g></svg>